<?xml version="1.0" encoding="iso-8859-1"?>
<svg fill="#000000" version="1.1" id="Capa_1" xmlns="http://www.w3.org/2000/svg" xmlns:xlink="http://www.w3.org/1999/xlink" 
	 viewBox="0 0 285 285" xml:space="preserve">
<g>
	<g>
		<circle cx="142.5" cy="142.5" r="142.5" fill="#333333"/>
		<rect x="103.492" y="128.924" width="78.017" height="27.152" fill="white"/>
		<path d="M50.902,121.286v2.758c-1.021-0.624-2.14-1.051-3.405-1.051c-3.748,0-6.779,3.036-6.779,6.778v25.457
			c0,3.742,3.031,6.778,6.779,6.778c1.265,0,2.384-0.427,3.405-1.051v2.758c0,6.915,5.186,12.556,11.872,13.396V107.89
			C56.088,108.73,50.902,114.371,50.902,121.286z" fill="white"/>
		<path d="M237.503,122.993c-1.265,0-2.384,0.427-3.404,1.051v-2.758c0-6.915-5.187-12.556-11.872-13.396v69.221
			c6.686-0.841,11.872-6.481,11.872-13.396v-2.758c1.021,0.624,2.14,1.051,3.404,1.051c3.748,0,6.779-3.036,6.779-6.778v-25.457
			C244.282,126.029,241.251,122.993,237.503,122.993z" fill="white"/>
		<path d="M83.128,86.533c-7.487,0-13.566,6.079-13.566,13.575v84.783c0,7.496,6.08,13.575,13.566,13.575
			c7.496,0,13.576-6.079,13.576-13.575v-84.783C96.704,92.612,90.624,86.533,83.128,86.533z" fill="white"/>
		<path d="M201.872,86.533c-7.496,0-13.576,6.079-13.576,13.575v84.783c0,7.496,6.08,13.575,13.576,13.575
			c7.487,0,13.566-6.079,13.566-13.575v-84.783C215.438,92.612,209.359,86.533,201.872,86.533z" fill="white"/>
	</g>
</g>
</svg>